<svg version="1.1" id="Layer_1" xmlns="http://www.w3.org/2000/svg" xmlns:xlink="http://www.w3.org/1999/xlink" x="0px" y="0px"
	 width="100%" viewBox="0 0 224 144" enable-background="new 0 0 224 144" xml:space="preserve">
<path fill="#000000" opacity="1.000000" stroke="none" 
	d="
M84.183594,91.269455 
	C75.847496,96.713188 68.993301,93.607613 67.988304,84.115776 
	C67.552071,79.995697 67.579811,75.789848 67.808594,71.645691 
	C68.068283,66.941635 66.355042,65.102219 61.586739,66.420784 
	C61.149788,68.698227 63.218109,69.896111 63.816505,71.707642 
	C66.024651,78.392334 64.066223,84.631912 57.871681,89.963562 
	C52.786919,94.340042 46.005646,95.227692 40.216057,92.274658 
	C34.911297,89.568916 31.446213,82.700760 32.622314,77.245491 
	C33.414879,73.569229 35.601170,71.251427 39.386284,70.974380 
	C42.386017,70.754822 44.415264,72.507088 45.533207,75.196014 
	C47.045063,78.832397 45.157387,81.210556 42.383728,83.227829 
	C40.964657,84.259911 38.700436,84.830742 39.054024,87.106194 
	C39.410488,89.400146 41.672276,89.908600 43.489124,90.682533 
	C48.305920,92.734367 52.325981,90.981705 55.755863,87.702881 
	C59.140404,84.467407 59.741505,77.713737 57.450638,72.684761 
	C55.440037,68.271027 50.804886,65.298103 46.352085,65.647110 
	C45.060112,65.748375 43.766495,66.528244 42.521076,65.584839 
	C42.311020,65.425720 42.297970,65.006523 42.169743,64.638084 
	C42.997570,62.843021 44.773056,63.638653 46.099861,63.339764 
	C49.393505,62.597794 52.544876,61.574581 55.109432,59.299690 
	C58.150036,56.602524 58.657944,53.286461 56.650234,49.855118 
	C54.445534,46.087109 50.864769,45.853977 47.003010,46.722958 
	C44.854088,47.206509 43.161751,49.314888 40.467415,48.834942 
	C43.183357,43.906319 50.429852,42.107510 56.276009,44.615891 
	C62.025272,47.082703 63.156094,52.234249 60.044823,61.785034 
	C66.632858,63.805111 67.721664,63.070049 67.751091,56.574501 
	C67.757881,55.076111 67.744087,53.577621 67.750862,52.079231 
	C67.779839,45.675980 67.916756,45.549675 74.688210,45.722679 
	C75.891525,48.567127 75.342857,51.603580 75.255974,54.534157 
	C75.114578,59.302803 74.642647,64.024506 81.480171,62.960762 
	C82.033569,64.473778 81.633026,65.474358 80.807800,65.480911 
	C74.856674,65.528175 75.089279,69.507339 75.283569,73.686363 
	C75.445763,77.175331 75.309097,80.677559 75.335579,84.173683 
	C75.354012,86.606888 75.668594,88.999771 78.523636,89.692764 
	C81.139259,90.327660 82.451851,88.586617 83.523415,86.530159 
	C84.042435,85.534096 84.770500,84.646950 85.669029,83.318558 
	C88.040260,86.708336 85.592873,88.737206 84.183594,91.269455 
M40.135380,73.840607 
	C36.741318,74.016617 34.719627,75.531509 36.181782,79.055351 
	C36.970493,80.956154 39.085159,82.098915 41.076767,80.557961 
	C43.777393,78.468414 43.432652,76.146591 40.135380,73.840607 
z"/>
<path fill="#000000" opacity="1.000000" stroke="none" 
	d="
M147.257431,91.741837 
	C150.772278,91.281738 151.800217,89.137192 151.758850,85.796753 
	C151.635284,75.818008 151.724731,65.836746 151.708679,55.856499 
	C151.703064,52.367168 152.477570,48.507984 146.345276,47.453415 
	C150.835129,44.854683 154.268082,46.006226 158.113525,45.373684 
	C158.113525,51.606987 158.113525,57.514694 158.113525,64.091064 
	C161.415451,62.796043 163.620010,60.957897 166.428085,60.514587 
	C172.473831,59.560143 176.462387,62.311710 177.440399,68.330948 
	C178.246765,73.293777 177.925903,78.293587 177.854431,83.273575 
	C177.800720,87.014641 177.746964,90.598717 183.217758,93.152069 
	C176.947281,94.401382 172.278519,93.446327 167.345001,93.306152 
	C170.835037,90.475975 170.859406,86.948738 170.747986,83.278252 
	C170.606735,78.624893 170.684601,73.964386 170.697571,69.307037 
	C170.704636,66.766777 169.934052,64.570618 167.387634,63.727558 
	C164.840179,62.884159 162.799179,64.374207 161.292435,66.173935 
	C159.576218,68.223869 158.424011,70.691521 158.380753,73.456520 
	C158.310501,77.946419 158.506882,82.445152 158.298035,86.926514 
	C158.166290,89.753021 160.530197,90.773033 162.491165,93.500328 
	C156.937683,93.888275 152.158905,94.936310 147.172165,92.476440 
	C147.024567,92.029137 147.257431,91.741837 147.257431,91.741837 
z"/>
<path fill="#000000" opacity="1.000000" stroke="none" 
	d="
M89.166855,45.691666 
	C91.528412,45.568108 93.487518,45.448818 96.043152,45.293205 
	C96.043152,51.479176 96.043152,57.398796 96.043152,64.026108 
	C98.483246,62.792606 100.121109,61.774372 101.890633,61.103245 
	C109.315201,58.287308 114.966599,61.980370 115.264656,69.906067 
	C115.439651,74.559456 115.430725,79.227737 115.286705,83.882591 
	C115.173500,87.541969 115.372719,90.897240 119.728394,92.353714 
	C116.806717,94.232880 109.778328,94.440262 104.967651,92.854378 
	C108.940956,90.357964 108.794662,86.616943 108.685356,82.811081 
	C108.565971,78.654091 108.640038,74.490990 108.661087,70.330719 
	C108.676476,67.290222 108.069649,64.268753 104.680733,63.737442 
	C101.422058,63.226543 99.094353,65.336540 97.703705,68.292259 
	C95.467842,73.044441 96.587479,78.121040 96.283981,83.061928 
	C96.055313,86.784492 96.174446,90.355202 100.864120,93.187927 
	C95.061813,94.492271 90.460426,93.743759 85.543304,93.466240 
	C90.563232,89.269547 89.262367,83.690155 89.508095,78.672272 
	C89.857712,71.532951 89.511253,64.362381 89.673859,57.209972 
	C89.766624,53.129269 89.689682,49.276073 85.581085,47.097973 
	C86.383018,45.323425 87.706123,45.879616 89.166855,45.691666 
z"/>
<path fill="#000000" opacity="1.000000" stroke="none" 
	d="
M146.911285,92.175278 
	C143.731369,94.146065 140.616913,94.920982 137.557556,92.398590 
	C135.875900,91.012108 134.518448,91.935066 133.000076,92.654823 
	C130.390305,93.891968 127.750885,94.506775 124.838226,93.369614 
	C121.876640,92.213333 120.254662,90.107285 119.821129,87.109062 
	C119.378006,84.044449 120.665482,81.629211 123.091034,79.744881 
	C125.662209,77.747437 128.852478,77.232338 131.740723,75.995811 
	C135.521545,74.377144 137.070831,70.848839 135.492432,67.049858 
	C134.057693,63.596653 131.248199,64.048203 128.648193,64.672150 
	C127.806412,65.757217 128.156784,66.558548 128.386230,67.335876 
	C129.025940,69.503197 128.810654,71.418037 126.393661,72.189072 
	C124.787865,72.701324 122.975266,72.747757 121.987991,70.941605 
	C120.941391,69.026894 120.990234,66.960571 122.514153,65.369583 
	C124.347633,63.455425 127.724709,62.697174 126.516136,58.774773 
	C126.276428,57.996796 127.988358,57.727879 128.999222,57.743347 
	C131.625259,57.783527 136.178452,56.732300 136.519424,58.148785 
	C137.615021,62.700123 142.607300,65.079201 142.377167,70.144615 
	C142.158554,74.956009 142.651398,79.807983 142.295090,84.602249 
	C142.012344,88.406921 143.390564,90.439857 147.112762,91.483734 
	C147.257431,91.741837 147.024567,92.029137 146.911285,92.175278 
M135.822342,83.390465 
	C135.578110,81.675713 136.425980,79.765053 134.907333,78.152130 
	C131.655518,78.710434 128.870880,79.981377 127.198967,82.943794 
	C125.954330,85.149117 125.653786,87.615395 127.935120,89.187965 
	C130.308762,90.824165 132.675690,89.929413 134.575760,87.876816 
	C135.539749,86.835449 135.762466,85.544884 135.822342,83.390465 
z"/>
<path fill="#000000" opacity="1.000000" stroke="none" 
	d="
M80.712677,110.637787 
	C76.732483,110.625999 77.730164,108.159958 78.164055,106.175056 
	C78.408218,105.058098 79.618439,104.669449 80.533783,105.210411 
	C82.948982,106.637779 82.770576,108.517349 80.712677,110.637787 
z"/>
</svg>